<svg xmlns="http://www.w3.org/2000/svg" viewBox="0 0 500 500">
  <rect width="200" height="200" fill="none" x="171.502" y="143.263" style="stroke-width: 1;"></rect>
  <path d="M 211.502 163.261 L 271.502 163.261 C 333.086 163.261 371.576 229.927 340.784 283.261 C 326.494 308.013 300.084 323.261 271.502 323.261 L 211.502 323.261" fill="none" stroke="#058743" stroke-width="20" stroke-linecap="square" style="stroke-width: 20;"></path>
  <g transform="matrix(7.5, 0, 0, 7.5, 180, 183.26059)">
    <g>
      <path fill="#058743" d="M 13.9 3.1 C 13.9 4.4 13.9 4.7 13.9 6 C 13.9 6.8 15 7.5 15 7.5 L 15 8.5 C 15 8.5 13.9 9.2 13.9 10 C 13.9 11.3 13.9 11.6 13.9 12.9 C 14.2 15 13.1 16 12.1 16 C 11.1 16 6.169 16.075 6.169 16.075 L 6.169 13.925 C 6.169 13.925 11.8 14.2 11.8 13 C 11.8 12.1 11.8 12.1 11.8 10.1 C 11.8 9.2 11.9 8.5 12.5 8 C 11.9 7.5 11.8 6.9 11.8 6 C 11.8 4 11.8 4 11.8 3.1 C 11.8 1.9 5.944 2.376 5.944 2.376 L 5.944 0.15 C 5.944 0.15 11 0 12.1 0 C 13.2 0 14.2 1 13.9 3.1 Z"></path>
    </g>
  </g>
</svg>